<svg class="w-full" viewBox="0 0 1440 164" fill="none" xmlns="http://www.w3.org/2000/svg">
    <path d="M1440 116.994L1380 121.172C1320 125.35 1200 133.707 1080 134.752C960 135.796 840 129.529 720 126.186C600 122.948 480 122.53 360 129.32C240 136.109 120 150.107 60.0001 157.001L1.71661e-05 164L3.15035e-05 1.80395e-06L60.0001 7.04932e-06C120 1.22947e-05 240 2.27854e-05 360 3.32761e-05C480 4.37669e-05 600 5.42576e-05 720 6.47483e-05C840 7.52391e-05 960 8.57298e-05 1080 9.62205e-05C1200 0.000106711 1320 0.000117202 1380 0.000122447L1440 0.000127693L1440 116.994Z" fill="#FFC701" />
</svg>
    