<svg class="w-14 sm:w-16 md:w-auto cursor-pointer svgMupo fill-current" width="84" height="100" viewBox="0 0 84 100" xmlns="http://www.w3.org/2000/svg">
    <path d="M73.3358 16.5683C80.7842 25.9977 84.1518 37.4873 83.8745 48.6995C83.5972 59.9117 79.6749 70.8466 72.2265 80.3948C64.8177 89.9826 53.8828 98.1838 41.4028 99.7289C28.9227 101.274 14.9372 96.1236 7.48878 86.5754C0.000758648 76.9875 -0.910483 63.002 0.634663 50.522C2.17981 38.0419 6.18134 27.107 13.6297 17.6777C21.0781 8.24832 32.013 0.284873 43.2252 0.00753878C54.4375 -0.269795 65.927 7.13898 73.3358 16.5683Z" fill="current" />
    <g id="letters">
        <path d="M43.8357 46.1001L44.7557 46.8801V47.0001H39.3757V46.8801L40.3157 46.1001V39.8201C40.3157 38.9534 39.9491 38.5201 39.2157 38.5201C38.7624 38.5201 38.3624 38.7534 38.0157 39.2201C38.0291 39.3001 38.0357 39.4201 38.0357 39.5801L37.9957 46.1001L38.9357 46.8801V47.0001H33.5557V46.8801L34.4757 46.1001V39.8201C34.4757 38.9534 34.1157 38.5201 33.3957 38.5201C32.9291 38.5201 32.5357 38.7467 32.2157 39.2001V46.1001L33.1357 46.8801V47.0001H27.7557V46.8801L28.6957 46.1001V38.6201L27.1957 39.3601L27.1157 39.2601L27.5357 38.6601C27.9757 38.0334 28.3291 37.5601 28.5957 37.2401C28.8624 36.9067 29.1491 36.6334 29.4557 36.4201C29.7624 36.2067 30.0824 36.1001 30.4157 36.1001C30.8957 36.1001 31.2691 36.2667 31.5357 36.6001C31.8157 36.9334 31.9557 37.5067 31.9557 38.3201C31.9557 38.5867 31.9491 38.8001 31.9357 38.9601H31.9557C33.3557 37.0401 34.3624 36.0801 34.9757 36.0801C35.8691 36.0801 36.5557 36.3201 37.0357 36.8001C37.5291 37.2667 37.8424 37.9001 37.9757 38.7001C39.2824 36.9534 40.2224 36.0801 40.7957 36.0801C41.8491 36.0801 42.6224 36.4067 43.1157 37.0601C43.6091 37.7001 43.8557 38.5401 43.8557 39.5801L43.8357 46.1001Z" fill="white" />
        <path d="M56.8892 44.0201L56.9692 44.1201L56.6092 44.6401C56.1692 45.2801 55.8092 45.7734 55.5292 46.1201C55.2625 46.4667 54.9692 46.7534 54.6492 46.9801C54.3425 47.1934 54.0158 47.3001 53.6692 47.3001C53.1892 47.3001 52.8092 47.1334 52.5292 46.8001C52.2625 46.4667 52.1292 45.8867 52.1292 45.0601C52.1292 44.7801 52.1358 44.5601 52.1492 44.4001C50.7492 46.3201 49.7425 47.2801 49.1292 47.2801C48.0758 47.2801 47.3025 46.9601 46.8092 46.3201C46.3292 45.6801 46.0892 44.8334 46.0892 43.7801L46.0692 37.3201L45.1492 36.4801V36.3601H49.6092V43.5401C49.6092 44.4067 49.9758 44.8401 50.7092 44.8401C51.1625 44.8401 51.5492 44.6201 51.8692 44.1801V37.3201L50.9292 36.4801V36.3601H55.4092V44.7601L56.8892 44.0201Z" fill="white" />
        <path d="M37.0637 49.6031C38.5357 49.7871 39.6244 50.3927 40.3297 51.4201C41.0351 52.4321 41.3877 53.7431 41.3877 55.3531C41.3877 57.1164 41.0197 58.5117 40.2837 59.5391C39.5631 60.5664 38.7427 61.2717 37.8227 61.6551C36.9181 62.0384 36.1361 62.2301 35.4767 62.2301C35.0167 62.2301 34.6257 62.1994 34.3037 62.1381V66.7151L35.3847 67.6121V67.7501H29.1747V67.6121L30.2557 66.7151V52.4091L28.5307 53.2831L28.4387 53.1681C28.7147 52.7694 28.8681 52.5471 28.8987 52.5011C29.6347 51.4431 30.2327 50.6841 30.6927 50.2241C31.1681 49.7487 31.6894 49.5111 32.2567 49.5111C32.8394 49.5111 33.2917 49.7334 33.6137 50.1781C33.9357 50.6074 34.0737 51.3664 34.0277 52.4551H34.0507C34.8174 51.5964 35.4767 50.9064 36.0287 50.3851C36.5807 49.8484 36.9257 49.5877 37.0637 49.6031ZM35.7757 61.6321C36.2664 61.6321 36.6497 61.3561 36.9257 60.8041C37.2171 60.2367 37.3627 59.2247 37.3627 57.7681C37.3627 55.9741 37.2171 54.6017 36.9257 53.6511C36.6497 52.6851 36.1744 52.2021 35.4997 52.2021C35.3311 52.2021 35.1317 52.2481 34.9017 52.3401C34.6717 52.4167 34.4801 52.5317 34.3267 52.6851V59.5161C34.4187 60.2521 34.5951 60.7887 34.8557 61.1261C35.1164 61.4634 35.4231 61.6321 35.7757 61.6321Z" fill="white" />
        <path d="M49.1898 62.3451C48.0091 62.3451 46.9664 62.0691 46.0618 61.5171C45.1571 60.9497 44.4594 60.1907 43.9688 59.2401C43.4781 58.2894 43.2328 57.2544 43.2328 56.1351C43.2328 54.4484 43.6238 53.1067 44.4058 52.1101C45.2031 51.1134 46.0694 50.4234 47.0048 50.0401C47.9401 49.6414 48.6531 49.4421 49.1438 49.4421C50.3244 49.4421 51.3671 49.7257 52.2718 50.2931C53.1918 50.8451 53.8971 51.6041 54.3878 52.5701C54.8784 53.5207 55.1238 54.5711 55.1238 55.7211C55.1238 57.3924 54.7251 58.7187 53.9278 59.7001C53.1458 60.6814 52.2794 61.3714 51.3288 61.7701C50.3934 62.1534 49.6804 62.3451 49.1898 62.3451ZM51.2368 61.2181C51.6201 61.0647 51.8118 60.6047 51.8118 59.8381C51.8118 58.8874 51.4821 57.4461 50.8228 55.5141C49.6421 52.1714 48.5228 50.5001 47.4648 50.5001C46.8361 50.5001 46.5218 50.9984 46.5218 51.9951C46.5218 52.9917 46.8361 54.4101 47.4648 56.2501C48.0474 57.9214 48.6224 59.1787 49.1898 60.0221C49.7724 60.8501 50.3398 61.2641 50.8918 61.2641C50.9684 61.2641 51.0834 61.2487 51.2368 61.2181Z" fill="white" />
    </g>
</svg>