<svg width="1081" height="1875" viewBox="0 0 1081 1875" fill="none" xmlns="http://www.w3.org/2000/svg">
    <defs>
        <pattern id="bg" patternUnits="userSpaceOnUse" width="1081" height="1875">
            <path d="M1066.31 546.678C1082.43 602.651 1049.14 667.877 1000.78 700.415C952.274 732.954 888.391 732.655 841.225 700.415C794.059 668.325 763.461 604.292 779.431 548.47C795.253 492.497 857.643 444.884 921.377 444.436C985.26 443.988 1050.34 490.706 1066.31 546.678Z" fill="#FFC701" stroke="#FFC701" stroke-width="20" />
            <path d="M570.021 75.9135C582.708 115.169 560.169 165.469 523.004 191.589C485.689 217.561 433.896 219.352 401.358 195.619C368.819 171.738 355.684 122.184 369.118 82.1824C382.402 42.0317 422.105 11.4335 465.838 10.0902C509.571 8.74686 557.483 36.8076 570.021 75.9135Z" stroke="#FFC701" stroke-width="20" />
            <path d="M506.108 1484.25C489.988 1540.22 523.273 1605.44 571.633 1637.98C620.142 1670.52 684.025 1670.22 731.191 1637.98C778.357 1605.89 808.955 1541.86 792.984 1486.04C777.163 1430.06 714.772 1382.45 651.039 1382C587.156 1381.56 522.078 1428.27 506.108 1484.25Z" stroke="#FFC701" stroke-width="20" />
            <path d="M14.3492 838.99C2.70697 874.812 14.9462 918.844 44.9473 941.382C74.9484 963.771 122.562 964.666 151.22 943.024C179.728 921.381 188.983 877.2 176.893 840.93C164.803 804.66 131.219 776.45 96.591 776.002C61.9629 775.704 26.1407 803.168 14.3492 838.99Z" stroke="#FFC701" stroke-width="20" />
            <path d="M292.119 1727.87C304.806 1767.12 282.268 1817.43 245.103 1843.55C207.788 1869.52 155.995 1871.31 123.456 1847.58C90.9177 1823.69 77.7829 1774.14 91.2162 1734.14C104.5 1693.99 144.203 1663.39 187.936 1662.05C231.669 1660.7 279.581 1688.76 292.119 1727.87Z" fill="#FFC701" stroke="#FFC701" stroke-width="20" />
        </pattern>
    </defs>
    <rect width="100%" height="100%" fill="url(#bg)" />
</svg>